P1
20 20
00000000000000000000
00000000000000000000
00000000000000000000
00000000000000000000
00000000000000000000
00000000000000000000
00000000000000000000
00000000000000000000
00000000000000000000
00000000000000000000
00000000000000000000
00000000000000000000
01111000000000000000
11001100000000000000
11001100000000000000
00011100000000000000
01101100000000000000
11001100000000000000
11001100000000000000
01110110000000000000
