P1
20 20
00000000000000000000
00000000000000000000
00000000000000000000
00000000000000000000
00000000000000000000
00000000000000000000
00000000000000000000
00000000000000000000
00000000000000000000
00000000000000000000
00000000000000000000
01111100000000000000
11001110000000000000
11001110000000000000
00011110000000000000
01101110000000000000
11001110000000000000
11001110000000000000
11111110000000000000
01110111000000000000
