P1
20 20
00000000000000000000
00000000000000000000
00000000000000000000
00000000000000000000
00000000000000000000
00000000000000000000
00000000000000000000
00000000000000000000
11000000000000000000
11000000000000000000
11000000000000000000
11011100000000000000
11111110000000000000
11100111000000000000
11000011000000000000
11000011000000000000
11000011000000000000
11000111000000000000
11111110000000000000
11011100000000000000
