P1
20 20
00000000000000000000
00000000000000000000
00000000000000000000
00000000000000000000
00000000000000000000
00000000000000000000
00000000000000000000
00000000000000000000
11100000000000000000
01100000000000000000
01100000000000000000
01100000000000000000
01111100000000000000
01100110000000000000
01100011000000000000
01100011000000000000
01100011000000000000
01100011000000000000
01100110000000000000
01011100000000000000
