P1
20 20
00000000000000000000
00000000000000000000
00000000000000000000
00000000000000000000
00000000000000000000
00000000000000000000
00000000000000000000
00000000000000000000
00000000000000000000
00000000000000000000
00000000000000000000
00111110000000000000
01111110000000000000
11100000000000000000
11000000000000000000
11000000000000000000
11000000000000000000
11100010000000000000
01111110000000000000
00111100000000000000
