P1
20 20
00000000000000000000
00000000000000000000
00000000000000000000
00000000000000000000
00000000000000000000
00000000000000000000
00000000000000000000
00000000000000000000
00000000000000000000
00000000000000000000
00000000000000000000
00111110000000000000
01110110000000000000
11100110000000000000
11100000000000000000
11100000000000000000
11100000000000000000
11100000000000000000
01110110000000000000
00111100000000000000
