P1
20 20
00000000000000000000
00000000000000000000
00000000000000000000
00000000000000000000
00000000000000000000
00000000000000000000
00000000000000000000
00000000000000000000
00000000000000000000
00000000000000000000
00000000000000000000
00001100000000000000
00000100000000000000
00000100000000000000
00111100000000000000
01000100000000000000
10000100000000000000
10000100000000000000
11001100000000000000
01110110000000000000
