P1
20 20
00000000000000000000
00000000000000000000
00000000000000000000
00000000000000000000
00000000000000000000
00000000000000000000
00000000000000000000
00000000000000000000
00001110000000000000
00000110000000000000
00000110000000000000
00000110000000000000
00111110000000000000
01100110000000000000
11000110000000000000
11000110000000000000
11000110000000000000
11000110000000000000
01100110000000000000
00111011000000000000
