P1
20 20
00000000000000000000
00000000000000000000
00000000000000000000
00000000000000000000
00000000000000000000
00000000000000000000
00000000000000000000
00001111000000000000
00000111000000000000
00000111000000000000
00000111000000000000
00110111000000000000
01111111000000000000
11100111000000000000
11100111000000000000
11100111000000000000
11100111000000000000
11100111000000000000
01110111000000000000
00111011100000000000
