P1
20 20
00000000000000000000
00000000000000000000
00000000000000000000
00000000000000000000
00000000000000000000
00000000000000000000
00000000000000000000
00000000000000000000
00000000000000000000
00000000000000000000
00000010000000000000
00000010000000000000
00000010000000000000
01111110000000000000
10000010000000000000
10000010000000000000
10000010000000000000
10000010000000000000
10000010000000000000
01111110000000000000
