P1
20 20
00000000000000000000
00000000000000000000
00000000000000000000
00000000000000000000
00000000000000000000
00000000000000000000
00000000000000000000
00000000000000000000
00000000000000000000
00000000000000000000
00000000000000000000
00111100000000000000
01111110000000000000
11000011000000000000
11111111000000000000
11111111000000000000
11000000000000000000
11100001000000000000
01111111000000000000
00111110000000000000
