P1
20 20
00000000000000000000
00000000000000000000
00000000000000000000
00000000000000000000
00000000000000000000
00000000000000000000
00000000000000000000
00000000000000000000
00000000000000000000
00000000000000000000
00000000000000000000
00000000000000000000
00111000000000000000
01000100000000000000
11000110000000000000
11111110000000000000
11000000000000000000
11000000000000000000
01100110000000000000
00111100000000000000
