P1
20 20
00000000000000000000
00000000000000000000
00000000000000000000
00000000000000000000
00000000000000000000
00000000000000000000
00000000000000000000
00111100000000000000
01111100000000000000
01100000000000000000
01100000000000000000
11111000000000000000
11111000000000000000
01100000000000000000
01100000000000000000
01100000000000000000
01100000000000000000
01100000000000000000
01100000000000000000
01100000000000000000
