P1
20 20
00000000000000000000
00000000000000000000
00000000000000000000
00000000000000000000
00000000000000000000
00000000000000000000
00000000000000000000
00000000000000000000
00000000000000000000
00000000000000000000
00000000000000000000
00111000000000000000
01101100000000000000
01100000000000000000
01100000000000000000
11110000000000000000
01100000000000000000
01100000000000000000
01100000000000000000
01100000000000000000
