P1
20 20
00000000000000000000
00000000000000000000
00000000000000000000
00000000000000000000
00000000000000000000
00000000000000000000
00000000000000000000
00000000000000000000
00000000000000000000
00000000000000000000
00000000000000000000
00111100000000000000
01001000000000000000
01001000000000000000
00110000000000000000
00100000000000000000
00111000000000000000
11000100000000000000
11001100000000000000
01110000000000000000
