P1
20 20
00000000000000000000
00000000000000000000
00000000000000000000
00000000000000000000
00000000000000000000
00000000000000000000
00000000000000000000
00000000000000000000
00111011000000000000
01111111000000000000
11100011000000000000
11000011000000000000
11000011000000000000
11000011000000000000
11100111000000000000
01111111000000000000
00111011000000000000
01000011000000000000
01111110000000000000
01111100000000000000
