P1
20 20
00000000000000000000
00000000000000000000
00000000000000000000
00000000000000000000
00000000000000000000
00000000000000000000
00000000000000000000
00000000000000000000
00000000000000000000
00111101100000000000
01100110100000000000
01100110000000000000
01100110000000000000
01100110000000000000
00111100000000000000
01000000000000000000
01111110000000000000
11000011000000000000
11000011000000000000
01111110000000000000
