P1
20 20
00000000000000000000
00000000000000000000
00000000000000000000
00000000000000000000
00000000000000000000
00000000000000000000
00000000000000000000
00000000000000000000
00000000000000000000
00000000000000000000
00000000000000000000
00000000000000000000
01110100000000000000
11001100000000000000
11001100000000000000
01111000000000000000
11000000000000000000
01111000000000000000
11001100000000000000
01111000000000000000
