P1
20 20
00000000000000000000
00000000000000000000
00000000000000000000
00000000000000000000
00000000000000000000
00000000000000000000
00000000000000000000
00111111100000000000
11100111000000000000
11100111000000000000
11100111000000000000
11100110000000000000
01111000000000000000
01100000000000000000
11111110000000000000
11111111100000000000
11100011100000000000
11000001100000000000
11100011000000000000
01111110000000000000
