P1
20 20
00000000000000000000
00000000000000000000
00000000000000000000
00000000000000000000
00000000000000000000
00000000000000000000
00000000000000000000
00000000000000000000
00000000000000000000
00000000000000000000
00000000000000000000
11000000000000000000
01000000000000000000
01000000000000000000
01111100000000000000
01000100000000000000
01000100000000000000
01000100000000000000
01000100000000000000
11101110000000000000
