P1
20 20
00000000000000000000
00000000000000000000
00000000000000000000
00000000000000000000
00000000000000000000
00000000000000000000
00000000000000000000
00000000000000000000
11000000000000000000
11000000000000000000
11000000000000000000
11011100000000000000
11011110000000000000
11100110000000000000
11000110000000000000
11000110000000000000
11000110000000000000
11000110000000000000
11000110000000000000
11000110000000000000
