P1
20 20
00000000000000000000
00000000000000000000
00000000000000000000
00000000000000000000
00000000000000000000
00000000000000000000
00000000000000000000
00000000000000000000
00000000000000000000
00000000000000000000
10000000000000000000
10000000000000000000
10000000000000000000
11111100000000000000
10000010000000000000
10000010000000000000
10000010000000000000
10000010000000000000
10000010000000000000
10000010000000000000
