P1
20 20
00000000000000000000
00000000000000000000
00000000000000000000
00000000000000000000
00000000000000000000
00000000000000000000
00000000000000000000
00000000000000000000
00000000000000000000
00000000000000000000
00100000000000000000
00100000000000000000
00000000000000000000
11100000000000000000
00100000000000000000
00100000000000000000
00100000000000000000
00100000000000000000
00100000000000000000
11111000000000000000
