P1
20 20
00000000000000000000
00000000000000000000
00000000000000000000
00000000000000000000
00000000000000000000
00000000000000000000
00000000000000000000
00000000000000000000
00100000000000000000
00000000000000000000
00000000000000000000
01100000000000000000
00100000000000000000
00100000000000000000
00100000000000000000
00100000000000000000
00100000000000000000
00100000000000000000
10100000000000000000
11000000000000000000
