P1
20 20
00000000000000000000
00000000000000000000
00000000000000000000
00000000000000000000
00000000000000000000
00011000000000000000
00011000000000000000
00000000000000000000
00011000000000000000
00011000000000000000
00011000000000000000
00011000000000000000
00011000000000000000
00011000000000000000
00011000000000000000
00011000000000000000
00011000000000000000
00011000000000000000
11111000000000000000
11110000000000000000
