P1
20 20
00000000000000000000
00000000000000000000
00000000000000000000
00011000000000000000
00011000000000000000
00011000000000000000
00000000000000000000
00111100000000000000
00011100000000000000
00011100000000000000
00011100000000000000
00011100000000000000
00011100000000000000
00011100000000000000
00011100000000000000
00011100000000000000
00011100000000000000
11011100000000000000
11011000000000000000
01110000000000000000
