P1
20 20
00000000000000000000
00000000000000000000
00000000000000000000
00000000000000000000
00000000000000000000
00000000000000000000
00000000000000000000
00001000000000000000
00001000000000000000
00000000000000000000
01111000000000000000
00001000000000000000
00001000000000000000
00001000000000000000
00001000000000000000
00001000000000000000
00001000000000000000
00001000000000000000
00001000000000000000
11110000000000000000
