P1
20 20
00000000000000000000
00000000000000000000
00000000000000000000
00000000000000000000
00000000000000000000
00000000000000000000
00000000000000000000
00000000000000000000
00000000000000000000
00000000000000000000
00000000000000000000
11000000000000000000
01000000000000000000
01000000000000000000
01001100000000000000
01010000000000000000
01110000000000000000
01010000000000000000
01001000000000000000
11100100000000000000
