P1
20 20
00000000000000000000
00000000000000000000
00000000000000000000
00000000000000000000
00000000000000000000
00000000000000000000
00000000000000000000
00000000000000000000
11000000000000000000
11000000000000000000
11000000000000000000
11000111000000000000
11001100000000000000
11011100000000000000
11111000000000000000
11110000000000000000
11011000000000000000
11001100000000000000
11001110000000000000
11000111000000000000
