P1
20 20
00000000000000000000
00000000000000000000
00000000000000000000
00000000000000000000
00000000000000000000
00000000000000000000
00000000000000000000
11110000000000000000
01110000000000000000
01110000000000000000
01110000000000000000
01110011100000000000
01110011000000000000
01110110000000000000
01111100000000000000
01111100000000000000
01111110000000000000
01110111000000000000
01110011100000000000
11110111110000000000
