P1
20 20
00000000000000000000
00000000000000000000
00000000000000000000
00000000000000000000
00000000000000000000
00000000000000000000
00000000000000000000
00000000000000000000
00000000000000000000
00000000000000000000
10000000000000000000
10000000000000000000
10000000000000000000
10000100000000000000
10001000000000000000
10010000000000000000
11100000000000000000
10010000000000000000
10001000000000000000
10000100000000000000
