P1
20 20
00000000000000000000
00000000000000000000
00000000000000000000
00000000000000000000
00000000000000000000
00000000000000000000
00000000000000000000
00000000000000000000
11000000000000000000
11000000000000000000
11000000000000000000
11000000000000000000
11000000000000000000
11000000000000000000
11000000000000000000
11000000000000000000
11000000000000000000
11000000000000000000
11000000000000000000
11000000000000000000
