P1
20 20
00000000000000000000
00000000000000000000
00000000000000000000
00000000000000000000
00000000000000000000
00000000000000000000
00000000000000000000
00000000000000000000
00000000000000000000
00000000000000000000
00000000000000000000
11011100111000000000
11011110111100000000
11100111001100000000
11000110001100000000
11000110001100000000
11000110001100000000
11000110001100000000
11000110001100000000
11000110001100000000
