P1
20 20
00000000000000000000
00000000000000000000
00000000000000000000
00000000000000000000
00000000000000000000
00000000000000000000
00000000000000000000
00000000000000000000
00000000000000000000
00000000000000000000
00000000000000000000
00000000000000000000
11101110011100000000
01110011100110000000
01100011000110000000
01100011000110000000
01100011000110000000
01100011000110000000
01100011000110000000
11110111101111000000
