P1
20 20
00000000000000000000
00000000000000000000
00000000000000000000
00000000000000000000
00000000000000000000
00000000000000000000
00000000000000000000
00000000000000000000
00000000000000000000
00000000000000000000
00000000000000000000
11110111001110000000
01111011110111000000
01110011100111000000
01110011100111000000
01110011100111000000
01110011100111000000
01110011100111000000
01110011100111000000
11111011110111100000
