P1
20 20
00000000000000000000
00000000000000000000
00000000000000000000
00000000000000000000
00000000000000000000
00000000000000000000
00000000000000000000
00000000000000000000
00000000000000000000
00000000000000000000
00000000000000000000
00000000000000000000
00000000000000000000
11101100000000000000
10010010000000000000
10010010000000000000
10010010000000000000
10010010000000000000
10000010000000000000
10000010000000000000
